<?xml version="1.0" encoding="UTF-8" standalone="no"?>
<svg
   xmlns:dc="http://purl.org/dc/elements/1.1/"
   xmlns:cc="http://creativecommons.org/ns#"
   xmlns:rdf="http://www.w3.org/1999/02/22-rdf-syntax-ns#"
   xmlns:svg="http://www.w3.org/2000/svg"
   xmlns="http://www.w3.org/2000/svg"
   xmlns:sodipodi="http://sodipodi.sourceforge.net/DTD/sodipodi-0.dtd"
   xmlns:inkscape="http://www.inkscape.org/namespaces/inkscape"
   width="6.0762501in"
   height="6.6294789in"
   version="1.1"
   viewBox="0 0 583.32203 636.43"
   id="svg4566"
   sodipodi:docname="snowflake.svg"
   inkscape:version="0.92.2 (5c3e80d, 2017-08-06)"
   inkscape:export-filename="/home/david/Projects/Ornament/snowflake.png"
   inkscape:export-xdpi="300.245"
   inkscape:export-ydpi="300.245">
  <metadata
     id="metadata4572">
    <rdf:RDF>
      <cc:Work
         rdf:about="">
        <dc:format>image/svg+xml</dc:format>
        <dc:type
           rdf:resource="http://purl.org/dc/dcmitype/StillImage" />
        <dc:title></dc:title>
      </cc:Work>
    </rdf:RDF>
  </metadata>
  <defs
     id="defs4570" />
  <sodipodi:namedview
     pagecolor="#ffffff"
     bordercolor="#666666"
     borderopacity="1"
     objecttolerance="10"
     gridtolerance="10"
     guidetolerance="10"
     inkscape:pageopacity="1"
     inkscape:pageshadow="2"
     inkscape:window-width="1920"
     inkscape:window-height="1019"
     id="namedview4568"
     showgrid="true"
     inkscape:zoom="11.313708"
     inkscape:cx="273.31879"
     inkscape:cy="307.4415"
     inkscape:window-x="0"
     inkscape:window-y="0"
     inkscape:window-maximized="1"
     inkscape:current-layer="svg4566"
     units="in"
     inkscape:pagecheckerboard="true">
    <inkscape:grid
       type="xygrid"
       id="grid4586" />
  </sodipodi:namedview>
  <path
     style="color:#000000;isolation:auto;mix-blend-mode:normal;solid-color:#000000;fill:#000000;fill-opacity:1;stroke:none;stroke-width:0.37704241;stroke-opacity:1;color-rendering:auto;image-rendering:auto;shape-rendering:auto"
     d="m 280.53809,196.23006 v 0.002 29.6583 l -22.95516,-13.25395 -11.58012,20.05671 34.53528,19.93952 v 43.58805 c 3.83148,6.63467 7.66079,13.26967 11.49223,19.90437 3.88929,-6.75198 7.77873,-13.50396 11.66801,-20.25593 v -42.86538 l 33.8009,-19.51375 -11.58012,-20.05866 -22.22078,12.82817 v -30.0294 z"
     id="path4758"
     inkscape:connector-curvature="0"
     inkscape:export-xdpi="300.245"
     inkscape:export-ydpi="300.245" />
  <path
     style="color:#000000;isolation:auto;mix-blend-mode:normal;solid-color:#000000;fill:#000000;fill-opacity:1;stroke:none;stroke-width:0.37704241;stroke-opacity:1;color-rendering:auto;image-rendering:auto;shape-rendering:auto"
     d="m 215.43141,234.73995 v 0.004 26.504 l -26.06845,-15.04888 -11.58011,20.05866 26.38876,15.23638 -22.21883,12.82818 11.58012,20.05671 33.8009,-19.51375 37.21302,21.4864 c 7.73366,-0.008 15.46563,-0.0172 23.1993,-0.0254 -3.77854,-6.52816 -7.55549,-13.05589 -11.33403,-19.58404 -0.0297,-0.11997 -0.0886,-0.24803 -0.16015,-0.37892 L 238.59165,274.619 v -39.87905 z"
     id="path4756"
     inkscape:connector-curvature="0"
     inkscape:export-xdpi="300.245"
     inkscape:export-ydpi="300.245" />
  <path
     style="color:#000000;isolation:auto;mix-blend-mode:normal;solid-color:#000000;fill:#000000;fill-opacity:1;stroke:none;stroke-width:0.37704241;stroke-opacity:1;color-rendering:auto;image-rendering:auto;shape-rendering:auto"
     d="m 345.29515,234.83566 v 39.87709 l -37.15833,21.4532 c -3.87949,6.72047 -7.76067,13.44005 -11.64066,20.16022 7.553,-0.007 15.10724,-0.0154 22.66023,-0.0234 0.0966,0.0321 0.21068,0.0474 0.33203,0.0547 l 37.06459,-21.39851 33.79895,19.51375 11.58011,-20.05671 -22.21883,-12.82818 26.00596,-15.01567 -11.58011,-20.05672 -25.68369,14.82818 v -26.50595 z"
     id="path4754"
     inkscape:connector-curvature="0"
     inkscape:export-xdpi="300.245"
     inkscape:export-ydpi="300.245" />
  <path
     style="color:#000000;isolation:auto;mix-blend-mode:normal;solid-color:#000000;fill:#000000;fill-opacity:1;stroke:none;stroke-width:0.37704241;stroke-opacity:1;color-rendering:auto;image-rendering:auto;shape-rendering:auto"
     d="m 264.49018,319.64763 -36.93373,21.32429 -34.53723,-19.93953 -11.58011,20.05671 22.95711,13.25396 -26.06845,15.04888 11.58012,20.05866 26.39071,-15.23442 v 25.65438 h 23.16024 v -39.02748 l 36.81849,-21.25593 11.48246,-19.93562 h -23.04891 c -0.0457,-0.009 -0.15667,-1.7e-4 -0.2207,-0.004 z"
     id="path4750"
     inkscape:connector-curvature="0"
     inkscape:export-xdpi="300.245"
     inkscape:export-ydpi="300.245" />
  <path
     style="color:#000000;isolation:auto;mix-blend-mode:normal;solid-color:#000000;fill:#000000;fill-opacity:1;stroke:none;stroke-width:0.37704241;stroke-opacity:1;color-rendering:auto;image-rendering:auto;shape-rendering:auto"
     d="m 296.48248,319.65153 c 3.84607,6.66219 7.69312,13.3242 11.53911,19.9864 0.0108,0.0312 0.0583,0.0987 0.0762,0.13672 l 36.32825,20.97468 v 39.02748 h 23.16219 v -25.65634 l 26.00595,15.01568 11.58012,-20.05867 -25.68368,-14.83012 22.95516,-13.25201 -11.58012,-20.05671 -34.53528,19.93757 -36.75989,-21.22468 z"
     id="path4748"
     inkscape:connector-curvature="0"
     inkscape:export-xdpi="300.245"
     inkscape:export-ydpi="300.245" />
  <path
     style="color:#000000;isolation:auto;mix-blend-mode:normal;solid-color:#000000;fill:#000000;fill-opacity:1;stroke:none;stroke-width:0.37704241;stroke-opacity:1;color-rendering:auto;image-rendering:auto;shape-rendering:auto"
     d="m 292.12114,319.88005 c -3.83086,6.63428 -7.66136,13.26812 -11.49223,19.90241 v 42.46694 l -34.53528,19.93952 11.58012,20.05671 22.95516,-13.25394 v 30.09971 h 23.16024 v -30.47081 l 22.22078,12.82817 11.58012,-20.05867 -33.8009,-19.51374 v -41.83217 c -3.88939,-6.72132 -7.77862,-13.44282 -11.66801,-20.16413 z"
     id="path4738"
     inkscape:connector-curvature="0"
     inkscape:export-xdpi="300.245"
     inkscape:export-ydpi="300.245" />
</svg>
